<svg xmlns="http://www.w3.org/2000/svg" xmlns:xlink="http://www.w3.org/1999/xlink" width="500" zoomAndPan="magnify" viewBox="0 0 375 374.999991" height="500" preserveAspectRatio="xMidYMid meet" version="1.0"><defs><g/></defs><g fill="#ffffff" fill-opacity="1"><g transform="translate(-62.925205, 745.356998)"><g><path d="M 183.578125 -713.546875 L 210.21875 -657.28125 C 184.5625 -649.382812 165.476562 -637.375 152.96875 -621.25 C 140.46875 -605.132812 133.890625 -583.257812 133.234375 -555.625 L 198.375 -555.625 L 198.375 -420.4375 L 63.15625 -420.4375 L 63.15625 -528.984375 C 63.15625 -578.328125 72.367188 -617.304688 90.796875 -645.921875 C 109.222656 -674.546875 140.148438 -697.085938 183.578125 -713.546875 Z M 410.5625 -713.546875 L 437.21875 -657.28125 C 410.894531 -649.382812 391.8125 -637.210938 379.96875 -620.765625 C 368.125 -604.316406 361.546875 -582.601562 360.234375 -555.625 L 425.375 -555.625 L 425.375 -420.4375 L 290.15625 -420.4375 L 290.15625 -529.96875 C 290.15625 -579.3125 299.53125 -618.128906 318.28125 -646.421875 C 337.039062 -674.710938 367.800781 -697.085938 410.5625 -713.546875 Z M 410.5625 -713.546875 "/></g></g></g></svg>